# xmcd CD database file
# Copyright (C) 1995-1998 Ti Kan
#
# Track frame offsets:
#	183
#	12175
#	31130
#	43493
#	56610
#	67558
#	80770
#	96285
#	110773
#	124915
#	135598
#	147508
#	159968
#	176738
#	188433
#	204553
#	217098
#	227953
#	239260
#	252930
#
# Disc length: 3556 seconds
#
# Revision: 9
# Processed by: cddbd v1.5.1PL2 Copyright (c) Steve Scherf et al.
# Submitted via: CDex 1.30Release
#
DISCID=200de214
DTITLE=NANCY SINATRA and Sinatra, Dean, Hazlewood - Greatest Hits
DYEAR=1990
DGENRE=Country
TTITLE0=Nancy Sinatra - These Boots Are Made For Walking
TTITLE1=Nancy Sinatra and Lee Hazelwood - Summerwine
TTITLE2=Nancy Sinatra and Dean Martin - Things
TTITLE3=Nancy Sinatra - Did You Ever?
TTITLE4=Nancy Sinatra - Friday's Child
TTITLE5=Nancy Sinatra - You Only Live Twice
TTITLE6=Nancy Sinatra - Highway Song
TTITLE7=Nancy Sinatra and Lee Hazelwood - Elusive Dreams
TTITLE8=Nancy Sinatra - Storybook Children
TTITLE9=Nancy Sinatra - Sugar Town
TTITLE10=Nancy and Frank Sinatra - Something Stupid
TTITLE11=Nancy Sinatra and Lee Hazelwood - Jackson
TTITLE12=Nancy Sinatra and Lee Hazelwood - Sand
TTITLE13=Nancy Sinatra and Lee Hazelwood - Sundown, Sundown
TTITLE14=Nancy Sinatra and Lee Hazelwood - Some Velvet Morning
TTITLE15=Nancy Sinatra and Lee Hazelwood - I've Been Down So Long
TTITLE16=Nancy Sinatra - Tony Rome
TTITLE17=Nancy Sinatra - How Does That Grab You, Darlin'
TTITLE18=Nancy Sinatra and Lee Hazelwood - Lady Bird
TTITLE19=Nancy Sinatra - So Long Babe
EXTD=YEAR: 1990 ID3G:   2
EXTT0=
EXTT1=\n
EXTT2=
EXTT3=\n
EXTT4=\n
EXTT5=\n
EXTT6=\n
EXTT7=\n
EXTT8=\n
EXTT9=\n
EXTT10=\n
EXTT11=
EXTT12=
EXTT13=
EXTT14=
EXTT15=
EXTT16=
EXTT17=
EXTT18=
EXTT19=
PLAYORDER=
